<svg xmlns="http://www.w3.org/2000/svg" xmlns:xlink="http://www.w3.org/1999/xlink" viewBox="0 0 35.99 28.83"><defs><style>.cls-1{fill:url(#linear-gradient);}.cls-2{fill:url(#linear-gradient-2);}.cls-3{fill:url(#linear-gradient-3);}.cls-4{fill:#f7a4a8;}</style><linearGradient id="linear-gradient" x1="67.88" y1="-1.88" x2="-9.62" y2="47" gradientUnits="userSpaceOnUse"><stop offset="0" stop-color="#aa3d3a"/><stop offset="1" stop-color="#f05b6f"/></linearGradient><linearGradient id="linear-gradient-2" x1="63.3" y1="-9.15" x2="-14.2" y2="39.74" xlink:href="#linear-gradient"/><linearGradient id="linear-gradient-3" x1="58.57" y1="-16.64" x2="-18.93" y2="32.24" xlink:href="#linear-gradient"/></defs><title>iconTodo</title><g id="Layer_2" data-name="Layer 2"><g id="Layer_1-2" data-name="Layer 1"><path class="cls-1" d="M24.73,24c-2.92,0-5.84,0-8.75,0-1.61,0-2.73.36-2.7,1.42s1.12,1.39,2.61,1.39H33.38c1.49,0,2.59-.42,2.61-1.39S34.88,24,33.27,24C30.43,24,27.58,24,24.73,24Z"/><path class="cls-2" d="M24.73,13.86c-2.92,0-5.84,0-8.75,0-1.61,0-2.73.36-2.7,1.42s1.12,1.39,2.61,1.39H33.38c1.49,0,2.59-.42,2.61-1.39s-1.11-1.43-2.72-1.42C30.43,13.88,27.58,13.86,24.73,13.86Z"/><path class="cls-3" d="M24.73,3.39c-2.92,0-5.84,0-8.75,0-1.61,0-2.73.36-2.7,1.42s1.12,1.39,2.61,1.39H33.38C34.87,6.19,36,5.77,36,4.8s-1.11-1.43-2.72-1.42C30.43,3.41,27.58,3.39,24.73,3.39Z"/><path class="cls-4" d="M4,4.07c-.61-.3-1.13-.54-1.63-.81a1.42,1.42,0,0,0-2.15.57,1.39,1.39,0,0,0,.72,2A12,12,0,0,0,3.79,7.21a2.26,2.26,0,0,0,1.92-.53A39.52,39.52,0,0,0,8.63,2.39,1.39,1.39,0,0,0,8.3.28,1.43,1.43,0,0,0,6.15.86C5.47,1.9,4.76,2.92,4,4.07Z"/><path class="cls-4" d="M4,15.24c-.61-.3-1.13-.54-1.63-.81A1.42,1.42,0,0,0,.21,15a1.39,1.39,0,0,0,.72,2,12,12,0,0,0,2.86,1.37,2.26,2.26,0,0,0,1.92-.53,39.52,39.52,0,0,0,2.91-4.29,1.39,1.39,0,0,0-.33-2.11A1.43,1.43,0,0,0,6.15,12C5.47,13.07,4.76,14.09,4,15.24Z"/><path class="cls-4" d="M4,25.65c-.61-.3-1.13-.54-1.63-.81a1.42,1.42,0,0,0-2.15.57,1.39,1.39,0,0,0,.72,2,12,12,0,0,0,2.86,1.37,2.26,2.26,0,0,0,1.92-.53A39.52,39.52,0,0,0,8.63,24a1.39,1.39,0,0,0-.33-2.11,1.43,1.43,0,0,0-2.15.58C5.47,23.48,4.76,24.5,4,25.65Z"/></g></g></svg>